<?xml version="1.0" encoding="UTF-8"?>
<!DOCTYPE svg PUBLIC "-//W3C//DTD SVG 1.1//EN" "http://www.w3.org/Graphics/SVG/1.1/DTD/svg11.dtd">
<!-- Creator: CorelDRAW -->
<svg xmlns="http://www.w3.org/2000/svg" xml:space="preserve" width="6.82666in" height="6.82666in" style="shape-rendering:geometricPrecision; text-rendering:geometricPrecision; image-rendering:optimizeQuality; fill-rule:evenodd; clip-rule:evenodd"
viewBox="0 0 6.82666 6.82666"
 xmlns:xlink="http://www.w3.org/1999/xlink">
 <defs>
  <style type="text/css">
   <![CDATA[
    .fil2 {fill:none}
    .fil0 {fill:#424242}
    .fil1 {fill:#FFFFFE;fill-rule:nonzero}
   ]]>
  </style>
 </defs>
 <rect class="fil0" width="6.82666" height="6.82666"/>
 <g id="Layer_x0020_1">
  <metadata id="CorelCorpID_0Corel-Layer"/>
  <path class="fil1" d="M5.62526 2.49057c-0.0693386,-0.0562677 -0.155067,-0.0852008 -0.240244,-0.0984016 -0.0548071,-0.00849606 -0.109799,-0.0104646 -0.160701,-0.00888583 -0.00237795,0.269157 -0.0359055,0.496846 -0.0968189,0.704307 -0.0412874,0.140622 -0.0949843,0.271543 -0.159949,0.399445 0.184657,-0.0240866 0.387386,-0.0801614 0.544343,-0.185764 0.143732,-0.0967008 0.247882,-0.237583 0.2565,-0.437815 0.0047126,-0.104988 -0.0139764,-0.184894 -0.0429213,-0.245445 -0.0277638,-0.0580984 -0.0653858,-0.0991496 -0.100209,-0.127441zm-0.209035 -0.300016c0.116933,0.0181299 0.236669,0.0595079 0.337843,0.141606 0.0539291,0.043811 0.11224,0.107496 0.155417,0.197843 0.0420079,0.0878858 0.0692992,0.200185 0.0629213,0.342252 -0.0118661,0.275713 -0.152685,0.467957 -0.346913,0.59863 -0.234717,0.157917 -0.548992,0.221311 -0.79515,0.232894 -0.0958465,0.126732 -0.213102,0.238878 -0.356606,0.334835 -0.156823,0.104866 -0.344437,0.189815 -0.569173,0.252669l-0.0272047 0.004 -1.67081 0 -0.0276024 -0.004c-0.572594,-0.160854 -0.90528,-0.459256 -1.09563,-0.868697 -0.185437,-0.398882 -0.229988,-0.897283 -0.229988,-1.47431l0 -0.102409 0.102409 0 4.17235 0 0.102409 0 0 0.102409c0,0.0458071 -0.000700787,0.104268 -0.00205512,0.17461 -0.000366142,0.0189528 -0.000783465,0.0375906 -0.00124803,0.0559252 0.0591142,-0.00127953 0.123417,0.00157087 0.189028,0.0117402z"/>
  <g id="_421030648">
   <rect id="_421030144" class="fil2" width="6.82666" height="6.82666"/>
   <rect id="_421030264" class="fil2" x="0.853331" y="0.853331" width="5.12" height="5.12"/>
  </g>
  <path class="fil1" d="M1.50581 4.34329c-0.0565591,0 -0.102409,0.0458504 -0.102409,0.102409 0,0.0565551 0.0458504,0.102406 0.102409,0.102406l3.1928 0c0.0565591,0 0.102409,-0.0458504 0.102409,-0.102406 0,-0.0565591 -0.0458504,-0.102409 -0.102409,-0.102409l-3.1928 0z"/>
  <path class="fil1" d="M2.3378 4.59518c-0.0565551,0 -0.102409,0.0458504 -0.102409,0.102406 0,0.0565591 0.0458543,0.102409 0.102409,0.102409l1.52882 0c0.0565551,0 0.102406,-0.0458504 0.102406,-0.102409 0,-0.0565551 -0.0458504,-0.102406 -0.102406,-0.102406l-1.52882 0z"/>
 </g>
</svg>
