<svg viewBox="0 0 24 24" xmlns="http://www.w3.org/2000/svg" fill="currentColor" stroke="currentColor" stroke-width="0"> <path d="M22.2 16.7c-.34-.68-1.37-1.34-2.18-1.24 0-.05 0-.13 0-.18 0-.45-.46-.56-.72-.37l-.08-.08c-2.47-1.33-5.39-1.65-8.15-1.7-2.05-.05-6.16-.16-7.72 1.54-.16-.08-.31-.18-.47-.26-.26-.16-.57.21-.41.41-.03.03-.03.08-.03.13-.26 5 .37 8.51 3.32 10.49 2.93 1.96 6.24 1.43 8.09-.64h.01c.31.82 1.5.76 2.25.46.95-.4 1.73-1.17 2.16-2.06.41-.86.49-1.83.03-2.8zM6.18 14.54c1.33-.29 2.71-.37 4.06-.41 2.39-.05 5.02.16 7.28 1.09-3.92 1.58-9.37 1.6-13.34-.08.61-.28 1.29-.57 2-.8zM11.14 22.53c-4.42-.03-7.6-3.36-8.16-7.59 4.3 2.9 11.49 2.69 15.97.52-.92 4.43-4.08 7.11-7.81 7.07zM21.2 18.86c-.29.57-.73 1.07-1.29 1.38-.58.34-1.08.08-1.66.23.87-1.17 1.46-2.58 1.64-4.14.5.23 1.09.26 1.44.81.26.43.07 1.1-.13 1.72z"/> <path d="M7.46 11.29c-.99-.44-1.67-.86-1.67-2.03 0-.73.21-1.43.29-2.13.13-1.3-.81-2.49-2.19-2.25-.37.05-.37.57-.1.75.68.41 1.3.39 1.3 1.34 0 .69-.21 1.43-.26 2.13-.1 1.53.94 2.55 2.4 2.78.33.05.59-.47.23-.59z"/> <path d="M12.58 8.22c.44-.57.75-1.15.75-1.92-.03-2.36-3.88-3.38-1.68-5.69.44-.47-.26-1.18-.73-.71-.76.71-1.6 1.7-1.12 2.78.61 1.36 2.81 2.36 2.44 4.05-.24 1.11-1.86 1.87-1.78 3.09.05 1.09 1.05 1.4 2.05 1.4.16 0 .21-.21.08-.29-.96-.55-.33-1.25 1-2.71z"/> <path d="M19.05 2.24c-1.02.94-1.54 1.94-1.02 3.3.24.6.99 1.73.24 2.31-.47.37-1.23.45-1.78.58-.6.13-1.83.37-2.04 1.13-.24.97.73 1.64 1.49 2 .26.13.52-.18.31-.41-.18-.18-1.29-1.14-.79-1.43.36-.23.88-.28 1.32-.39.75-.18 1.62-.28 2.27-.78.57-.39.75-1.33.61-2.01-.38-1.63-1.27-2.33.22-3.85.42-.43-.22-1.06-.83-.45z"/> </svg>